<?xml version="1.0" encoding="utf-8"?>
<!-- Generator: Adobe Illustrator 24.0.2, SVG Export Plug-In . SVG Version: 6.00 Build 0)  -->
<svg version="1.1" id="Layer_1" xmlns="http://www.w3.org/2000/svg" xmlns:xlink="http://www.w3.org/1999/xlink" x="0px" y="0px"
	 viewBox="0 0 1080 1080" style="enable-background:new 0 0 1080 1080;" xml:space="preserve">
<style type="text/css">
	.st0{fill:#0D6EFD;}
	.st1{opacity:0.6;}
	.st2{fill:#878787;}
	.st3{fill:#B7B7B7;}
	.st4{fill:#707D45;}
	.st5{fill:#C4FC0D;}
</style>
<path class="st0" d="M75,1080h931c40.9,0,74-33.1,74-74V75c0-41.4-33.6-75-75-75H75C33.6,0,0,33.6,0,75v930
	C0,1046.4,33.6,1080,75,1080z"/>
<g>
	<g class="st1">
		<path class="st2" d="M660.7,943H456.5c-11.1,0-20.1-9-20.1-20.1V388.8c0-11.1,9-20.1,20.1-20.1h204.2c11.1,0,20.1,9,20.1,20.1
			v534.1C680.8,934,671.8,943,660.7,943z"/>
		<path class="st2" d="M324.9,883.1H120.7c-11.1,0-20.1-9-20.1-20.1V328.9c0-11.1,9-20.1,20.1-20.1h204.2c11.1,0,20.1,9,20.1,20.1
			V863C345,874.1,336,883.1,324.9,883.1z"/>
		<path class="st2" d="M996.5,839.9H792.3c-11.1,0-20.1-9-20.1-20.1V285.6c0-11.1,9-20.1,20.1-20.1h204.2c11.1,0,20.1,9,20.1,20.1
			v534.1C1016.6,830.9,1007.6,839.9,996.5,839.9z"/>
	</g>
	<g>
		<g>
			<path class="st3" d="M653.7,936H449.5c-11.1,0-20.1-9-20.1-20.1V381.8c0-11.1,9-20.1,20.1-20.1h204.2c11.1,0,20.1,9,20.1,20.1
				v534.1C673.8,927,664.8,936,653.7,936z"/>
			<path class="st3" d="M317.9,876.1H113.7c-11.1,0-20.1-9-20.1-20.1V321.9c0-11.1,9-20.1,20.1-20.1h204.2c11.1,0,20.1,9,20.1,20.1
				V856C338,867.1,329,876.1,317.9,876.1z"/>
			<path class="st3" d="M989.5,832.9H785.3c-11.1,0-20.1-9-20.1-20.1V278.6c0-11.1,9-20.1,20.1-20.1h204.2c11.1,0,20.1,9,20.1,20.1
				v534.1C1009.6,823.9,1000.6,832.9,989.5,832.9z"/>
		</g>
	</g>
</g>
<g>
	<path class="st4" d="M0,495l110.4,205.5l146.2-121.4l171.5,106l176.7-277.5l137.5,212.1l93.4-88.3L974,686.4l106-97.6V1006
		c0,41.4-1080,7.7-1080-33.7V495z"/>
	<path class="st5" d="M0,559.5l84.2,156.8l146.2-121.4l171.5,106l176.7-277.5l137.5,212.1l93.4-88.3l138.3,155.1L1080,580.4V1005
		c0,41.4-33.6,75-75,75H75c-41.4,0-75-33.6-75-75V559.5z"/>
</g>
</svg>
