<?xml version="1.0" encoding="utf-8"?>
<!-- Generator: Adobe Illustrator 24.0.2, SVG Export Plug-In . SVG Version: 6.00 Build 0)  -->
<svg version="1.1" id="Layer_1" xmlns="http://www.w3.org/2000/svg" xmlns:xlink="http://www.w3.org/1999/xlink" x="0px" y="0px"
	 viewBox="0 0 1080 1080" style="enable-background:new 0 0 1080 1080;" xml:space="preserve">
<style type="text/css">
	.st0{fill:#7AB9FB;}
	.st1{fill:#FACB7A;}
	.st2{fill:#8896A5;}
	.st3{fill:#198754;}
</style>
<path class="st0" d="M75,1080h931c40.9,0,74-33.1,74-74V75c0-41.4-33.6-75-75-75H75C33.6,0,0,33.6,0,75v930
	C0,1046.4,33.6,1080,75,1080z"/>
<g>
	<g>
		<path class="st1" d="M660.7,908.3H456.5c-11.1,0-20.1-9-20.1-20.1V354c0-11.1,9-20.1,20.1-20.1h204.2c11.1,0,20.1,9,20.1,20.1
			v534.1C680.8,899.2,671.8,908.3,660.7,908.3z"/>
		<path class="st1" d="M324.9,848.4H120.7c-11.1,0-20.1-9-20.1-20.1V294.1c0-11.1,9-20.1,20.1-20.1h204.2c11.1,0,20.1,9,20.1,20.1
			v534.1C345.1,839.4,336,848.4,324.9,848.4z"/>
		<path class="st1" d="M996.5,805.2H792.3c-11.1,0-20.1-9-20.1-20.1V250.9c0-11.1,9-20.1,20.1-20.1h204.2c11.1,0,20.1,9,20.1,20.1
			V785C1016.6,796.2,1007.6,805.2,996.5,805.2z"/>
	</g>
	<g>
		<g>
			<path class="st2" d="M653.7,903.3H449.5c-11.1,0-20.1-9-20.1-20.1V349c0-11.1,9-20.1,20.1-20.1h204.2c11.1,0,20.1,9,20.1,20.1
				v534.1C673.8,894.2,664.8,903.3,653.7,903.3z"/>
			<path class="st2" d="M317.9,843.4H113.7c-11.1,0-20.1-9-20.1-20.1V289.1c0-11.1,9-20.1,20.1-20.1h204.2c11.1,0,20.1,9,20.1,20.1
				v534.1C338.1,834.4,329,843.4,317.9,843.4z"/>
			<path class="st2" d="M989.5,800.2H785.3c-11.1,0-20.1-9-20.1-20.1V245.9c0-11.1,9-20.1,20.1-20.1h204.2c11.1,0,20.1,9,20.1,20.1
				V780C1009.6,791.2,1000.6,800.2,989.5,800.2z"/>
		</g>
	</g>
</g>
<g>
	<path class="st1" d="M0,495l110.4,205.5l146.2-121.4l171.5,106l176.7-277.5l137.5,212.1l93.4-88.3L974,686.4l106-97.6V1006
		c0,41.4-1080,7.7-1080-33.7V495z"/>
	<path class="st3" d="M0,559.5l84.2,156.8l146.2-121.4l171.5,106l176.7-277.5l137.5,212.1l93.4-88.3l138.3,155.1L1080,580.4V1005
		c0,41.4-33.6,75-75,75H75c-41.4,0-75-33.6-75-75V559.5z"/>
</g>
</svg>
